<?xml version="1.0" encoding="UTF-8" standalone="no"?>
<!-- Generator: Adobe Illustrator 16.0.0, SVG Export Plug-In . SVG Version: 6.00 Build 0)  -->

<svg
   xmlns:dc="http://purl.org/dc/elements/1.1/"
   xmlns:cc="http://creativecommons.org/ns#"
   xmlns:rdf="http://www.w3.org/1999/02/22-rdf-syntax-ns#"
   xmlns:svg="http://www.w3.org/2000/svg"
   xmlns="http://www.w3.org/2000/svg"
   xmlns:sodipodi="http://sodipodi.sourceforge.net/DTD/sodipodi-0.dtd"
   xmlns:inkscape="http://www.inkscape.org/namespaces/inkscape"
   version="1.1"
   id="Capa_1"
   x="0px"
   y="0px"
   width="363.5px"
   height="363.5px"
   viewBox="0 0 363.5 363.5"
   style="enable-background:new 0 0 363.5 363.5;"
   xml:space="preserve"
   sodipodi:docname="sunrise.svg"
   inkscape:version="0.92.3 (2405546, 2018-03-11)"><metadata
   id="metadata118"><rdf:RDF><cc:Work
       rdf:about=""><dc:format>image/svg+xml</dc:format><dc:type
         rdf:resource="http://purl.org/dc/dcmitype/StillImage" /></cc:Work></rdf:RDF></metadata><defs
   id="defs116" /><sodipodi:namedview
   pagecolor="#ffffff"
   bordercolor="#666666"
   borderopacity="1"
   objecttolerance="10"
   gridtolerance="10"
   guidetolerance="10"
   inkscape:pageopacity="0"
   inkscape:pageshadow="2"
   inkscape:window-width="1920"
   inkscape:window-height="1137"
   id="namedview114"
   showgrid="false"
   inkscape:zoom="1.8830244"
   inkscape:cx="171.22324"
   inkscape:cy="152.53506"
   inkscape:window-x="1912"
   inkscape:window-y="-8"
   inkscape:window-maximized="1"
   inkscape:current-layer="Capa_1" />
<g
   id="g81"
   style="fill:#ffffff">
	<g
   id="g79"
   style="fill:#ffffff">
		<path
   d="M181.7,86.05c5.701,0,9.6-3.8,9.6-9.6v-38.2c0-5.7-3.8-9.6-9.6-9.6c-5.8,0-9.6,3.8-9.6,9.6v38.2    C172.2,82.25,176,86.05,181.7,86.05z"
   id="path65"
   style="fill:#ffffff" />
		<path
   d="M283.1,122.45l26.8-26.8c3.801-3.8,3.801-9.6,0-13.4c-3.8-3.8-9.6-3.8-13.399,0l-26.8,26.8c-3.801,3.8-3.801,9.6,0,13.4    C273.5,126.25,279.3,126.25,283.1,122.45z"
   id="path67"
   style="fill:#ffffff" />
		<path
   d="M76.5,219.95h210.399c0-3.8,0-5.699,0-9.6c0-57.4-47.8-105.2-105.2-105.2s-105.2,47.8-105.2,105.2    C76.5,214.25,76.5,216.15,76.5,219.95z"
   id="path69"
   style="fill:#ffffff" />
		<path
   d="M306.1,210.45c0,5.7,3.8,9.601,9.601,9.601h38.199c5.7,0,9.601-3.8,9.601-9.601c0-5.8-3.8-9.6-9.601-9.6H315.7    C311.8,200.85,306.1,206.55,306.1,210.45z"
   id="path71"
   style="fill:#ffffff" />
		<path
   d="M353.899,258.25H237.2l-23,19.1l-34.4,28.7l-30.6-28.7l-22.9-19.1H9.6c-3.8,0-9.6,3.8-9.6,9.6s5.7,9.6,9.6,9.6h105.2    l66.9,57.4l66.9-57.4h105.2c5.7,0,9.6-3.8,9.6-9.6S359.6,258.25,353.899,258.25z"
   id="path73"
   style="fill:#ffffff" />
		<path
   d="M80.4,122.45c3.8,3.8,9.6,3.8,13.4,0c3.8-3.8,3.8-9.6,0-13.4L67,82.25c-3.8-3.8-9.6-3.8-13.4,0c-3.8,3.8-3.8,9.6,0,13.4    L80.4,122.45z"
   id="path75"
   style="fill:#ffffff" />
		<path
   d="M9.6,219.95h38.2c3.8,0,9.6-3.8,9.6-9.6c0-3.8-3.8-9.601-9.6-9.601H9.6c-5.7,0-9.6,5.7-9.6,9.601    C0.1,216.15,3.9,219.95,9.6,219.95z"
   id="path77"
   style="fill:#ffffff" />
	</g>
</g>
<g
   id="g83">
</g>
<g
   id="g85">
</g>
<g
   id="g87">
</g>
<g
   id="g89">
</g>
<g
   id="g91">
</g>
<g
   id="g93">
</g>
<g
   id="g95">
</g>
<g
   id="g97">
</g>
<g
   id="g99">
</g>
<g
   id="g101">
</g>
<g
   id="g103">
</g>
<g
   id="g105">
</g>
<g
   id="g107">
</g>
<g
   id="g109">
</g>
<g
   id="g111">
</g>
</svg>